<?xml version="1.0" encoding="utf-8"?>
<!-- Generator: Adobe Illustrator 26.1.0, SVG Export Plug-In . SVG Version: 6.00 Build 0)  -->
<svg version="1.1" id="a" xmlns="http://www.w3.org/2000/svg" xmlns:xlink="http://www.w3.org/1999/xlink" x="0px" y="0px"
	 viewBox="0 0 200 169" style="enable-background:new 0 0 200 169;" xml:space="preserve">
<style type="text/css">
	.st0{fill:#F7CCFF;}
	.st1{font-family:'MyriadPro-Regular';}
	.st2{font-size:12px;}
	.st3{fill:#E59433;}
	.st4{font-family:'ArialMT';}
	.st5{font-size:21px;}
</style>
<rect class="st0" width="200" height="169"/>
<text transform="matrix(1 0 0 1 83 67)"><tspan x="0" y="0" class="st1 st2">30 días </tspan><tspan x="0" y="14.4" class="st1 st2">para cambios</tspan><tspan x="0" y="28.8" class="st1 st2">y devoluciones</tspan></text>
<rect x="-1" y="0" class="st0" width="200" height="169"/>
<text transform="matrix(1 0 0 1 46.68 54.98)" class="st3 st4 st5">30 días pa</text>
<text transform="matrix(1 0 0 1 134.4 54.98)" class="st3 st4 st5">r</text>
<text transform="matrix(1 0 0 1 141.16 54.98)" class="st3 st4 st5">a</text>
<text transform="matrix(1 0 0 1 54.93 80.18)" class="st3 st4 st5">cambios y</text>
<text transform="matrix(1 0 0 1 40.65 105.38)" class="st3 st4 st5">de</text>
<text transform="matrix(1 0 0 1 63.02 105.38)" class="st3 st4 st5">v</text>
<text transform="matrix(1 0 0 1 72.91 105.38)" class="st3 st4 st5">oluciones</text>
</svg>
