<?xml version="1.0" encoding="UTF-8"?><svg id="a" xmlns="http://www.w3.org/2000/svg" viewBox="0 0 205 171"><defs><style>.b{fill:#f7ccff;}.c{fill:#e59433;}</style></defs><rect class="b" x="2.5" y="1" width="200" height="169"/><g><path class="c" d="M103.03,93.91c5.58,0,10.6-2.33,14.2-6.05,3.42-3.55,5.53-8.36,5.53-13.68,0-9.9-7.31-18.08-16.82-19.49-.94-.14-1.91-.24-2.9-.24-10.89,0-19.72,8.83-19.72,19.72s8.83,19.72,19.72,19.72Zm-1.08-18.32c-3.14-1.06-5.29-2.52-5.29-5.37,0-2.58,1.82-4.61,4.96-5.22v-2.79h2.88v2.58c1.97,.09,3.29,.5,4.26,.97l-.86,3.32c-.76-.32-2.11-1-4.23-1-1.91,0-2.52,.82-2.52,1.65,0,.97,1.02,1.58,3.52,2.52,3.49,1.24,4.9,2.85,4.9,5.49s-1.85,4.84-5.22,5.43v2.99h-2.88v-2.79c-1.97-.09-3.88-.61-4.99-1.26l.88-3.44c1.23,.67,2.96,1.29,4.87,1.29,1.68,0,2.82-.64,2.82-1.82s-.94-1.82-3.11-2.55Z"/><path class="c" d="M56.65,106.14c1.45,1.45,3.42,2.27,5.48,2.26h81.54c2.06,0,4.03-.81,5.48-2.26,1.45-1.45,2.27-3.42,2.27-5.48V47.73c.01-4.27-3.45-7.74-7.73-7.75H62.11c-4.27,0-7.74,3.47-7.74,7.75v52.93c.01,2.06,.83,4.03,2.28,5.48Zm19.99-56.47h52.52c2.49,5.44,6.99,9.75,12.58,11.97v25.18c-5.6,2.19-10.09,6.48-12.6,11.9h-52.47c-2.51-5.42-7-9.7-12.59-11.9v-25.18c5.58-2.22,10.08-6.53,12.57-11.97Z"/><path class="c" d="M62.13,119.62h81.54c2.06,0,4.03-.81,5.48-2.26,1.45-1.45,2.27-3.42,2.27-5.48,0,0,.03-6.35,.01-6.29-.98,5.24-4.87,7.19-7.74,7.19H62.13c-6.67,0-7.76-6.72-7.76-6.72,0,2.06-.76,8.84,2.28,11.3,1.59,1.29,3.42,2.27,5.48,2.26Z"/><path class="c" d="M151.38,116.99c-.98,5.24-4.87,7.19-7.74,7.19H62.08c-6.67,0-7.76-6.72-7.76-6.72,0,2.06-.76,8.84,2.28,11.3,1.6,1.29,3.42,2.27,5.48,2.26h81.54c2.06,0,4.03-.81,5.48-2.26,1.45-1.45,2.27-3.42,2.27-5.48,0,0,.03-6.35,.01-6.29Z"/></g><rect class="b" width="205" height="171"/><g><path class="c" d="M102.5,111.59c7.38,0,14.03-3.07,18.77-7.99,4.52-4.69,7.31-11.06,7.31-18.09,0-13.1-9.66-23.92-22.25-25.77-1.25-.19-2.52-.32-3.83-.32-14.41,0-26.08,11.68-26.08,26.09s11.68,26.08,26.08,26.08Zm-1.44-24.22c-4.16-1.4-6.99-3.34-6.99-7.11,0-3.42,2.41-6.09,6.56-6.91v-3.69h3.8v3.42c2.6,.12,4.35,.66,5.63,1.28l-1.13,4.39c-1.01-.43-2.79-1.32-5.59-1.32-2.52,0-3.34,1.09-3.34,2.18,0,1.28,1.36,2.1,4.66,3.34,4.62,1.63,6.49,3.77,6.49,7.26s-2.45,6.41-6.91,7.19v3.96h-3.81v-3.69c-2.6-.12-5.13-.82-6.6-1.67l1.17-4.54c1.63,.89,3.92,1.71,6.45,1.71,2.22,0,3.73-.85,3.73-2.41s-1.24-2.4-4.11-3.38Z"/><path class="c" d="M141,82.15c1.6,14.23-4.67,28.17-16.69,36.42-5.24,3.59-12.26,5.58-19.79,5.58-8.52,0-16.71-2.49-23.66-7.18l-2.98-2.01s2.25-3.48,4.26-6.58c.61-.95,.66-2.17,.12-3.17-.54-1-1.59-1.61-2.73-1.62-7.4-.01-20.22-.03-27.15-.05-1.05,0-2.03,.53-2.6,1.41-.57,.89-.65,2-.23,2.96l11.14,24.83c.46,1.04,1.45,1.73,2.59,1.82,1.13,.08,2.21-.45,2.83-1.4,2.05-3.16,4.36-6.74,4.36-6.74l3.11,2.11c8.49,5.79,18.44,8.85,28.75,8.85s20.24-3.09,28.76-8.94c15.16-10.4,23.55-28.42,21.92-46.61l-12.01,.32Z"/><path class="c" d="M155.44,63.09l-11.13-24.83c-.46-1.04-1.45-1.73-2.58-1.82-1.13-.08-2.22,.45-2.83,1.4-2.05,3.16-4.36,6.74-4.36,6.74l-3.11-2.11c-8.49-5.79-18.44-8.85-28.75-8.85s-20.24,3.09-28.76,8.94c-15.16,10.4-23.55,28.42-21.92,46.61l12.02-.32c-1.6-14.23,4.66-28.17,16.68-36.42,5.24-3.59,12.26-5.58,19.79-5.58,8.52,0,16.71,2.49,23.66,7.18l2.98,2.01s-2.25,3.48-4.26,6.58c-.62,.95-.67,2.17-.13,3.17,.54,1,1.59,1.61,2.72,1.62,7.4,.01,20.21,.03,27.15,.05,1.05,0,2.03-.53,2.6-1.41,.57-.89,.65-2,.23-2.95Z"/></g></svg>