<?xml version="1.0" encoding="UTF-8"?><svg id="a" xmlns="http://www.w3.org/2000/svg" viewBox="0 0 200 169"><defs><style>.b{fill:#f7ccff;}.c{fill:#e59433;}</style></defs><rect class="b" width="200" height="169"/><g><path class="c" d="M142.23,59.95c-2.8-6.52-9.2-10.74-16.3-10.75l-27.93-.02-.03,44.63-49.7-.04v20.17h6.96c1.31-8.06,8.25-14.22,16.68-14.22s15.36,6.18,16.66,14.25l23.68,.02c1.31-8.06,8.25-14.23,16.69-14.22s15.36,6.18,16.66,14.25h8.39l.02-26.57-11.79-27.49Zm-34.49,21.64l.02-23.47h14.11c5.57,.01,10.62,3.33,12.83,8.45l6.5,15.05-33.46-.02Z"/><path class="c" d="M92.73,39.83l-46.71-.03-.03,48.03,46.71,.03,.03-48.03Zm-6.91,41.15l-32.95-.02,.02-34.28,32.95,.02-.02,34.28Z"/><path class="c" d="M128.94,104.21c-6.91,0-12.5,5.58-12.51,12.48s5.58,12.5,12.49,12.5,12.5-5.58,12.5-12.49c0-6.9-5.58-12.5-12.48-12.5Zm-.01,17.41c-2.72,0-4.92-2.21-4.92-4.92s2.21-4.91,4.92-4.91,4.91,2.21,4.91,4.92-2.2,4.92-4.92,4.92Z"/><path class="c" d="M71.92,104.17c-6.9,0-12.5,5.58-12.5,12.48s5.58,12.5,12.49,12.5,12.5-5.58,12.5-12.49-5.58-12.5-12.48-12.5Zm-.01,17.41c-2.72,0-4.92-2.21-4.92-4.92s2.21-4.91,4.92-4.91,4.91,2.21,4.91,4.92-2.2,4.92-4.92,4.92Z"/></g></svg>