<?xml version="1.0" encoding="UTF-8"?><svg id="a" xmlns="http://www.w3.org/2000/svg" viewBox="0 0 200 169"><defs><style>.b{fill:#f7ccff;}.c{fill:#e59433;}</style></defs><rect class="b" width="200" height="169"/><g><path class="c" d="M100.53,92.91c5.58,0,10.6-2.33,14.2-6.05,3.42-3.55,5.53-8.36,5.53-13.68,0-9.9-7.31-18.08-16.82-19.49-.94-.14-1.91-.24-2.9-.24-10.89,0-19.72,8.83-19.72,19.72s8.83,19.72,19.72,19.72Zm-1.08-18.32c-3.14-1.06-5.29-2.52-5.29-5.37,0-2.58,1.82-4.61,4.96-5.22v-2.79h2.88v2.58c1.97,.09,3.29,.5,4.26,.97l-.86,3.32c-.76-.32-2.11-1-4.23-1-1.91,0-2.52,.82-2.52,1.65,0,.97,1.02,1.58,3.52,2.52,3.49,1.24,4.9,2.85,4.9,5.49s-1.85,4.84-5.22,5.43v2.99h-2.88v-2.79c-1.97-.09-3.88-.61-4.99-1.26l.88-3.44c1.23,.67,2.96,1.29,4.87,1.29,1.68,0,2.82-.64,2.82-1.82s-.94-1.82-3.11-2.55Z"/><path class="c" d="M54.15,105.14c1.45,1.45,3.42,2.27,5.48,2.26h81.54c2.06,0,4.03-.81,5.48-2.26,1.45-1.45,2.27-3.42,2.27-5.48V46.73c.01-4.27-3.45-7.74-7.73-7.75H59.61c-4.27,0-7.74,3.47-7.74,7.75v52.93c.01,2.06,.83,4.03,2.28,5.48Zm19.99-56.47h52.52c2.49,5.44,6.99,9.75,12.58,11.97v25.18c-5.6,2.19-10.09,6.48-12.6,11.9h-52.47c-2.51-5.42-7-9.7-12.59-11.9v-25.18c5.58-2.22,10.08-6.53,12.57-11.97Z"/><path class="c" d="M59.63,118.62h81.54c2.06,0,4.03-.81,5.48-2.26,1.45-1.45,2.27-3.42,2.27-5.48,0,0,.03-6.35,.01-6.29-.98,5.24-4.87,7.19-7.74,7.19H59.63c-6.67,0-7.76-6.72-7.76-6.72,0,2.06-.76,8.84,2.28,11.3,1.59,1.29,3.42,2.27,5.48,2.26Z"/><path class="c" d="M148.88,115.99c-.98,5.24-4.87,7.19-7.74,7.19H59.58c-6.67,0-7.76-6.72-7.76-6.72,0,2.06-.76,8.84,2.28,11.3,1.6,1.29,3.42,2.27,5.48,2.26h81.54c2.06,0,4.03-.81,5.48-2.26,1.45-1.45,2.27-3.42,2.27-5.48,0,0,.03-6.35,.01-6.29Z"/></g></svg>